<svg width="77" height="20" viewBox="0 0 77 20" fill="none" xmlns="http://www.w3.org/2000/svg">
<path opacity="0.8" d="M7.90536 19.1664C9.43986 19.1664 10.6524 18.5792 11.543 17.4047C12.4337 16.2302 12.879 14.5728 12.879 12.4324C12.879 10.3539 12.4472 8.71772 11.5835 7.52391C10.7199 6.3301 9.52468 5.7332 7.99789 5.7332C6.37856 5.7332 5.15636 6.37453 4.33128 7.6572H4.19248C4.28501 6.48271 4.33128 5.62889 4.33128 5.09573V0.900024H0.803467V18.9346H3.49848L4.08838 17.509H4.33128C5.19492 18.6139 6.38628 19.1664 7.90536 19.1664ZM6.91063 16.3036C6.01615 16.3036 5.36263 16.0023 4.95009 15.3996C4.53755 14.7969 4.33128 13.8001 4.33128 12.4092V12.0268C4.3467 10.7905 4.5549 9.90379 4.95587 9.36677C5.35685 8.82976 5.99301 8.56125 6.86436 8.56125C7.61234 8.56125 8.20223 8.87998 8.63405 9.51745C9.06587 10.1549 9.28178 11.1111 9.28178 12.3861C9.28178 13.661 9.0678 14.6327 8.63983 15.301C8.21187 15.9694 7.63547 16.3036 6.91063 16.3036ZM21.6465 19.1664C22.6566 19.1664 23.5125 19.0911 24.2143 18.9404C24.916 18.7897 25.5753 18.5599 26.1921 18.2508V15.5155C25.4365 15.8709 24.7116 16.1297 24.0176 16.292C23.3236 16.4543 22.5872 16.5354 21.8084 16.5354C20.806 16.5354 20.0271 16.2534 19.4719 15.6893C18.9168 15.1252 18.6199 14.341 18.5813 13.3365H26.9208V11.6211C26.9208 9.7821 26.4119 8.34103 25.394 7.2979C24.3762 6.25477 22.9535 5.7332 21.126 5.7332C19.2136 5.7332 17.7158 6.32624 16.6324 7.51232C15.5489 8.6984 15.0072 10.3771 15.0072 12.5483C15.0072 14.6578 15.5933 16.2881 16.7654 17.4395C17.9374 18.5908 19.5645 19.1664 21.6465 19.1664ZM23.6128 10.9836H18.6623C18.724 10.1105 18.9669 9.43632 19.391 8.96111C19.8151 8.48591 20.4011 8.24831 21.1491 8.24831C21.8971 8.24831 22.4908 8.48591 22.9304 8.96111C23.3699 9.43632 23.5974 10.1105 23.6128 10.9836Z" fill="#767986"/>
<path d="M33.6525 18.9346V12.9076H35.1909C37.2883 12.9076 38.9057 12.4247 40.0431 11.4588C41.1805 10.493 41.7492 9.09827 41.7492 7.27472C41.7492 5.52071 41.2152 4.20134 40.1472 3.31661C39.0792 2.43188 37.5197 1.98952 35.4685 1.98952H30.0669V18.9346H33.6525ZM34.8323 9.96368H33.6525V4.93347H35.2834C36.2627 4.93347 36.9818 5.13437 37.4406 5.53616C37.8994 5.93796 38.1288 6.55998 38.1288 7.40221C38.1288 8.23672 37.8551 8.87225 37.3076 9.30882C36.7601 9.74539 35.935 9.96368 34.8323 9.96368ZM47.1134 19.1664C48.1235 19.1664 48.9428 19.0215 49.5713 18.7318C50.1997 18.442 50.8108 17.9224 51.4046 17.1729H51.4971L52.1795 18.9346H54.6432V10.2998C54.6432 8.75442 54.1806 7.60311 53.2552 6.84587C52.3299 6.08864 50.9998 5.71002 49.2648 5.71002C47.4527 5.71002 45.8025 6.10023 44.3142 6.88064L45.4825 9.26826C46.8782 8.64238 48.0927 8.32944 49.126 8.32944C50.4677 8.32944 51.1385 8.98623 51.1385 10.2998V10.8677L48.8946 10.9373C46.9591 11.0068 45.5114 11.368 44.5514 12.021C43.5913 12.6739 43.1113 13.688 43.1113 15.0634C43.1113 16.377 43.468 17.3892 44.1812 18.1001C44.8945 18.811 45.8719 19.1664 47.1134 19.1664ZM48.4435 16.5818C47.3023 16.5818 46.7317 16.0834 46.7317 15.0866C46.7317 14.3912 46.9823 13.8735 47.4835 13.5335C47.9847 13.1935 48.7481 13.0081 49.7737 12.9772L51.1385 12.9308V13.9971C51.1385 14.7775 50.8937 15.4034 50.4041 15.8748C49.9144 16.3461 49.2609 16.5818 48.4435 16.5818ZM60.0448 4.36554C60.6849 4.36554 61.1649 4.21293 61.4849 3.90772C61.8049 3.60251 61.9649 3.1756 61.9649 2.62699C61.9649 1.47568 61.3249 0.900024 60.0448 0.900024C58.7648 0.900024 58.1248 1.47568 58.1248 2.62699C58.1248 3.78602 58.7648 4.36554 60.0448 4.36554ZM61.803 18.9346V5.9766H58.2752V18.9346H61.803ZM69.5989 19.1664C71.2413 19.1664 72.4635 18.5289 73.2655 17.254H73.4159L74.0983 18.9346H76.8049V0.900024H73.2655V5.04937C73.2655 5.80661 73.3542 6.66816 73.5315 7.63402H73.4159C72.5599 6.36681 71.3184 5.7332 69.6914 5.7332C68.1415 5.7332 66.9251 6.32624 66.0421 7.51232C65.1592 8.6984 64.7178 10.3539 64.7178 12.4788C64.7178 14.5728 65.1515 16.2109 66.019 17.3931C66.8865 18.5753 68.0798 19.1664 69.5989 19.1664ZM70.8365 16.35C70.0191 16.35 69.3907 16.0312 68.9511 15.3938C68.5116 14.7563 68.2918 13.8001 68.2918 12.5251C68.2918 11.2502 68.5097 10.2785 68.9454 9.61017C69.381 8.9418 69.9921 8.60761 70.7787 8.60761C71.7426 8.60761 72.4385 8.90896 72.8664 9.51165C73.2944 10.1144 73.5084 11.1111 73.5084 12.502V12.8844C73.4698 14.1439 73.2404 15.0364 72.8202 15.5618C72.3999 16.0872 71.7387 16.35 70.8365 16.35Z" fill="#767986"/>
</svg>
