<svg width="55" height="19" viewBox="0 0 55 19" fill="none" xmlns="http://www.w3.org/2000/svg">
<path fill-rule="evenodd" clip-rule="evenodd" d="M5.57403 0.800962C5.85276 0.812458 7.68436 0.968379 8.20039 3.07953C8.71948 5.21463 10.1969 11.1337 10.1969 11.1337H10.5962C10.6361 10.9741 12.0803 5.18424 12.5927 3.08712C13.1088 0.975978 14.9347 0.820056 15.2178 0.80856L15.2548 0.807647V0.800049H20.0464V18.2001H15.2548V7.87402H14.8555L12.0603 18.2001H8.73279L5.93766 7.86643H5.53836V18.2001H0.746704V0.800049L5.57403 0.800962ZM26.9011 0.800049V11.1337H27.3004L30.6945 2.62363C31.3534 0.944416 32.7576 0.800049 32.7576 0.800049H37.2831V18.2001H32.4914V7.86643H32.0921L28.7646 16.3765C28.1057 18.0481 26.6349 18.2001 26.6349 18.2001H22.1095V0.800049H26.9011ZM54.2868 8.70223C53.5747 11.0045 51.658 12.6533 49.3953 12.6533H44.2043V18.2001H39.4127V8.70223H54.2868Z" fill="#767986"/>
<path opacity="0.8" fill-rule="evenodd" clip-rule="evenodd" d="M49.0724 0.800049H38.3695C38.9043 3.82654 41.0904 6.25606 43.9182 7.04739C44.5599 7.22787 45.2351 7.32505 45.9304 7.32505H54.1798C54.2534 6.96409 54.2868 6.59619 54.2868 6.21441C54.2868 3.22263 51.9537 0.800049 49.0724 0.800049Z" fill="#767986"/>
</svg>
