<svg width="104" height="25" viewBox="0 0 104 25" fill="none" xmlns="http://www.w3.org/2000/svg">
<path d="M89.5081 2.91504H77.4973V22.0829H89.5081V2.91504Z" fill="#FF5F00"/>
<path d="M78.7339 12.5006C78.7324 10.6549 79.1606 8.83307 79.9861 7.17295C80.8117 5.51283 82.0128 4.05793 83.4987 2.91837C81.6584 1.50514 79.4482 0.626341 77.1208 0.382404C74.7934 0.138466 72.4428 0.539233 70.3375 1.5389C68.2322 2.53857 66.4572 4.09681 65.2154 6.03552C63.9736 7.97423 63.315 10.2152 63.315 12.5023C63.315 14.7894 63.9736 17.0304 65.2154 18.9691C66.4572 20.9078 68.2322 22.4661 70.3375 23.4657C72.4428 24.4654 74.7934 24.8662 77.1208 24.6222C79.4482 24.3783 81.6584 23.4995 83.4987 22.0863C82.0124 20.9463 80.8109 19.4909 79.9854 17.8302C79.1599 16.1694 78.7319 14.3469 78.7339 12.5006Z" fill="#EB001B"/>
<path d="M102.492 20.0547V19.662H102.666V19.5807H102.253V19.662H102.416V20.0547H102.492ZM103.293 20.0547V19.5807H103.168L103.023 19.9193L102.877 19.5807H102.752V20.0547H102.842V19.6958L102.978 20.0039H103.071L103.206 19.6958V20.0547H103.293Z" fill="#F79E1B"/>
<path d="M103.685 12.5007C103.685 14.788 103.026 17.0291 101.784 18.9679C100.542 20.9066 98.7668 22.4649 96.6612 23.4644C94.5557 24.4639 92.2048 24.8644 89.8773 24.6201C87.5498 24.3758 85.3396 23.4966 83.4993 22.0829C84.9847 20.9424 86.1855 19.4871 87.0112 17.8269C87.8369 16.1666 88.266 14.3449 88.266 12.499C88.266 10.6531 87.8369 8.83135 87.0112 7.17114C86.1855 5.51092 84.9847 4.05563 83.4993 2.91505C85.3396 1.50138 87.5498 0.622152 89.8773 0.377864C92.2048 0.133576 94.5557 0.534085 96.6612 1.53361C98.7668 2.53314 100.542 4.09135 101.784 6.03013C103.026 7.9689 103.685 10.21 103.685 12.4973V12.5007Z" fill="#F79E1B"/>
<path d="M27.4103 9.43482C27.3801 11.8029 29.535 13.1244 31.1583 13.9101C32.8262 14.7163 33.3864 15.2332 33.38 15.9541C33.3673 17.0575 32.0495 17.5444 30.8161 17.5633C28.6644 17.5965 27.4135 16.9863 26.4188 16.5247L25.6438 20.1274C26.6416 20.5842 28.4894 20.9826 30.4055 21C34.9031 21 37.8458 18.7948 37.8617 15.3755C37.8792 11.0362 31.8188 10.7959 31.8602 8.85624C31.8745 8.26818 32.4395 7.6406 33.6776 7.48094C34.2904 7.40032 35.9821 7.33867 37.8999 8.21601L38.6527 4.73033C37.6214 4.35726 36.2957 4 34.6453 4C30.4119 4 27.4342 6.23526 27.4103 9.43482ZM45.886 4.30035C45.0648 4.30035 44.3725 4.77618 44.0637 5.50651L37.6389 20.7439H42.1333L43.0277 18.2889H48.5199L49.0388 20.7439H53L49.5433 4.30035H45.886ZM46.5147 8.74242L47.8117 14.9171H44.2595L46.5147 8.74242ZM21.9611 4.30035L18.4184 20.7439H22.7011L26.2422 4.30035H21.9611ZM15.6253 4.30035L11.1675 15.4925L9.36436 5.97601C9.15269 4.91371 8.31716 4.30035 7.38932 4.30035H0.101856L0 4.77776C1.49601 5.10024 3.19572 5.62033 4.22542 6.17677C4.85565 6.51664 5.03549 6.81384 5.24239 7.62163L8.65774 20.7439H13.184L20.1229 4.30035H15.6253Z" fill="url(#paint0_linear)"/>
<defs>
<linearGradient id="paint0_linear" x1="51.2672" y1="12.55" x2="7.43374" y2="4.20115" gradientUnits="userSpaceOnUse">
<stop stop-color="#222862"/>
<stop offset="1" stop-color="#2547A0"/>
</linearGradient>
</defs>
</svg>
