<svg width="80" height="27" viewBox="0 0 80 27" fill="none" xmlns="http://www.w3.org/2000/svg">
<path fill-rule="evenodd" clip-rule="evenodd" d="M15.0388 0.622744C15.1443 0.517028 15.3171 0.517028 15.4221 0.622744L19.0687 4.27612C19.1742 4.38202 19.1742 4.55523 19.0687 4.66037L15.9123 5.55502H23.6695C23.8178 5.55502 23.9405 5.67741 23.9405 5.82681V10.9938C23.9405 11.1431 23.8178 11.2655 23.6695 11.2655L20.8146 9.69444L22.3826 11.2655L26.2983 15.1899C26.404 15.2958 26.404 15.469 26.2983 15.5748L22.6524 19.2281C22.5469 19.334 22.3738 19.334 22.2691 19.2281L21.351 16.0615V23.8337C21.351 23.9833 21.2291 24.1055 21.08 24.1055H15.9234C15.7744 24.1055 15.6517 23.9833 15.6517 23.8337L17.2538 20.9653L15.6517 22.5702L11.792 26.4384C11.6865 26.5443 11.5142 26.5443 11.4085 26.4384L7.76129 22.785C7.65637 22.6793 7.65637 22.5061 7.76129 22.4002L10.9124 21.5082H3.15599C3.00617 21.5082 2.88476 21.3865 2.88476 21.2371V16.0702C2.88476 15.9206 3.00617 15.7984 3.15599 15.7984L6.00278 17.3695L0.518334 11.8738C0.412834 11.768 0.412834 11.5949 0.518334 11.489L4.16422 7.83558C4.26991 7.72987 4.44276 7.72987 4.54844 7.83558L5.46238 10.9937V3.22224C5.46238 3.07208 5.58436 2.95043 5.73363 2.95043H10.8905C11.0396 2.95043 11.1618 3.07208 11.1618 3.22224L9.51399 6.16934L9.50539 6.18526L9.50417 6.18856L11.1619 4.5076L15.0388 0.622744ZM50.8404 18.1582C50.9182 18.1582 50.9795 18.1703 51.0231 18.1933C51.066 18.2164 51.097 18.2514 51.1148 18.2977C51.132 18.3421 51.1397 18.3984 51.1393 18.4638V21.278C51.1398 21.3164 51.132 21.3402 51.1155 21.3533C51.0977 21.3653 51.0673 21.3705 51.0231 21.3698H50.7242C50.6872 21.3706 50.6595 21.3653 50.6417 21.3533C50.6232 21.3402 50.614 21.3164 50.614 21.278V18.6231H49.4361L49.3991 19.0814C49.3748 19.4066 49.3469 19.6904 49.3187 19.9318C49.2902 20.1738 49.2547 20.3794 49.2124 20.5507C49.1675 20.7232 49.1122 20.866 49.0441 20.9824C48.9754 21.0975 48.8903 21.1914 48.7854 21.2649C48.6818 21.3382 48.5551 21.397 48.404 21.4426C48.3883 21.4499 48.369 21.4553 48.3499 21.4593C48.3308 21.4632 48.3129 21.4624 48.2951 21.4553C48.2792 21.448 48.2667 21.4321 48.2583 21.4056L48.1776 21.161C48.169 21.1346 48.1711 21.1087 48.1829 21.0849C48.1954 21.0611 48.2179 21.042 48.2515 21.0268C48.3393 20.989 48.4146 20.9442 48.4779 20.8924C48.5413 20.8403 48.5953 20.7721 48.6402 20.6881C48.6851 20.6041 48.724 20.4958 48.7551 20.3616C48.7874 20.2272 48.8151 20.0593 48.8396 19.8576C48.8647 19.6553 48.8884 19.412 48.9109 19.1243L48.9597 18.4638C48.965 18.3573 48.9953 18.2793 49.0514 18.2304C49.1088 18.1813 49.1814 18.1569 49.2712 18.1582H50.8404ZM61.3813 18.0908C61.6136 18.0915 61.8136 18.1245 61.9819 18.1899C62.1508 18.2542 62.2894 18.3466 62.3976 18.4657C62.5064 18.586 62.587 18.7275 62.6398 18.8928C62.6933 19.0576 62.7189 19.242 62.7189 19.4424C62.7176 19.5701 62.6959 19.6679 62.6544 19.7373C62.6127 19.8068 62.5566 19.8544 62.4874 19.8821C62.4194 19.9086 62.3428 19.9212 62.2603 19.9198H60.5091C60.5096 20.111 60.5354 20.2743 60.5863 20.4085C60.6377 20.544 60.7083 20.6518 60.7967 20.7352C60.8865 20.8178 60.9894 20.878 61.1062 20.9162C61.2231 20.9539 61.3471 20.9724 61.4797 20.9719C61.5695 20.9719 61.6593 20.9633 61.7483 20.9473C61.8368 20.9322 61.9193 20.9117 61.9971 20.8866C62.0749 20.8602 62.1415 20.8304 62.1989 20.8006C62.224 20.7853 62.2459 20.7801 62.2649 20.7867C62.2827 20.792 62.3007 20.8066 62.3151 20.8304L62.4445 21.0883C62.4588 21.1153 62.4643 21.1399 62.4584 21.1603C62.4518 21.1822 62.4346 21.198 62.4075 21.2105C62.3093 21.2688 62.2057 21.3144 62.0968 21.3481C61.9892 21.3805 61.8789 21.4043 61.7674 21.4174C61.6553 21.4307 61.545 21.4368 61.4368 21.4368C61.1319 21.4381 60.8714 21.3798 60.6522 21.2621C60.4352 21.1451 60.2668 20.9646 60.1493 20.72C60.0326 20.4752 59.9725 20.1605 59.9718 19.7783C59.9726 19.5099 60.0081 19.2698 60.0788 19.0608C60.1488 18.852 60.247 18.6747 60.3744 18.5312C60.5018 18.3871 60.6503 18.2773 60.8211 18.2025C60.992 18.1285 61.1795 18.0908 61.3813 18.0908ZM39.0806 16.894L39.1121 16.8952C39.1299 16.9012 39.1417 16.9196 39.1503 16.9528L39.2051 17.1914C39.2169 17.2311 39.2169 17.2628 39.2065 17.2873C39.1939 17.3117 39.1715 17.329 39.1378 17.3383C38.9822 17.3687 38.8376 17.3985 38.7037 17.4255C38.5703 17.4545 38.4476 17.4825 38.338 17.5095C38.1427 17.5571 37.9811 17.6114 37.8531 17.6716C37.725 17.731 37.6214 17.8037 37.5456 17.8898C37.4684 17.9764 37.4096 18.0821 37.3681 18.2079C37.3258 18.3327 37.2935 18.4862 37.2697 18.6654C37.2731 18.6654 37.2749 18.6654 37.2762 18.6668C37.3872 18.6001 37.4968 18.5431 37.6122 18.4981C37.7271 18.4544 37.8406 18.4222 37.9534 18.4023C38.0662 18.3824 38.1724 18.3717 38.2714 18.3717C38.4627 18.3732 38.6284 18.4002 38.7696 18.453C38.9109 18.5074 39.031 18.582 39.1278 18.678C39.2255 18.7737 39.3027 18.8862 39.3615 19.0125C39.421 19.1394 39.463 19.2778 39.4894 19.4251C39.516 19.5732 39.5299 19.7254 39.5285 19.8834C39.5298 20.0215 39.5147 20.1638 39.4849 20.3079C39.4559 20.4521 39.4064 20.591 39.3385 20.7257C39.2698 20.8601 39.1787 20.9805 39.0639 21.0869C38.9485 21.194 38.8059 21.2787 38.6363 21.3402C38.4666 21.4029 38.2661 21.436 38.0324 21.4367C37.8001 21.4359 37.603 21.4048 37.4406 21.346C37.2795 21.2871 37.1482 21.2059 37.0446 21.1027C36.943 21.0001 36.865 20.8832 36.8091 20.7508C36.7543 20.6187 36.716 20.4793 36.6948 20.3317C36.675 20.185 36.6644 20.0367 36.6658 19.8894C36.6645 19.5799 36.6737 19.2974 36.6922 19.0416C36.7107 18.7871 36.7449 18.5563 36.7945 18.3526C36.8446 18.1477 36.918 17.967 37.013 17.811C37.1073 17.6549 37.2307 17.522 37.3819 17.4103C37.5336 17.3005 37.721 17.2112 37.9414 17.1425C38.0251 17.1181 38.1144 17.0943 38.2113 17.0731C38.3076 17.0519 38.4052 17.0315 38.5036 17.0122C38.6026 16.9925 38.6971 16.9732 38.7887 16.9561C38.8798 16.9376 38.9623 16.9196 39.0341 16.9038C39.0699 16.8938 39.0962 16.8905 39.1121 16.8952L39.0806 16.894ZM47.4131 16.894L47.4446 16.8952C47.4618 16.9012 47.4744 16.9196 47.4828 16.9528L47.5376 17.1914C47.5495 17.2311 47.5495 17.2628 47.5383 17.2873C47.5258 17.3117 47.5039 17.329 47.4702 17.3383L47.036 17.4255C46.9029 17.4545 46.78 17.4825 46.6705 17.5095C46.4753 17.5571 46.3134 17.6114 46.1855 17.6716C46.0574 17.731 45.9539 17.8037 45.878 17.8898C45.8007 17.9764 45.7414 18.0821 45.7005 18.2079C45.6582 18.3327 45.6253 18.4862 45.6021 18.6654C45.6054 18.6654 45.6074 18.6654 45.6081 18.6668C45.6094 18.6668 45.6114 18.6687 45.6146 18.672C45.7196 18.6001 45.8292 18.5431 45.9446 18.4981C46.0594 18.4544 46.173 18.4222 46.2858 18.4023C46.3986 18.3824 46.5048 18.3717 46.6038 18.3717C46.7946 18.3732 46.9609 18.4002 47.1021 18.453C47.2434 18.5074 47.3635 18.582 47.4603 18.678C47.5574 18.7737 47.6352 18.8862 47.694 19.0125C47.7535 19.1394 47.7957 19.2778 47.8221 19.4251C47.8485 19.5732 47.8624 19.7254 47.861 19.8834C47.8623 20.0215 47.8464 20.1638 47.8174 20.3079C47.7877 20.4521 47.7389 20.591 47.671 20.7257C47.6023 20.8601 47.5112 20.9805 47.3958 21.0869C47.281 21.194 47.1384 21.2787 46.9682 21.3402C46.7993 21.4029 46.5986 21.436 46.365 21.4367C46.1328 21.4359 45.9347 21.4048 45.7731 21.346C45.6115 21.2871 45.4807 21.2059 45.3771 21.1027C45.2755 21.0001 45.1977 20.8832 45.1416 20.7508C45.0868 20.6187 45.0485 20.4793 45.0275 20.3317C45.0077 20.185 44.9971 20.0367 44.9978 19.8894C44.997 19.5799 45.0064 19.2974 45.0241 19.0416C45.0427 18.7871 45.0769 18.5563 45.127 18.3526C45.1772 18.1477 45.2505 17.967 45.3448 17.811C45.4392 17.6549 45.5627 17.522 45.7144 17.4103C45.8661 17.3005 46.0535 17.2112 46.274 17.1425C46.3571 17.1181 46.4469 17.0943 46.5438 17.0731C46.6396 17.0519 46.738 17.0315 46.8361 17.0122C46.9351 16.9925 47.0296 16.9732 47.1212 16.9561C47.2123 16.9376 47.2948 16.9196 47.3668 16.9038C47.4024 16.8938 47.4287 16.8905 47.4446 16.8952L47.4131 16.894ZM34.8038 18.0908C35.0353 18.0915 35.2353 18.1245 35.4042 18.1899C35.5731 18.2542 35.7117 18.3466 35.8206 18.4657C35.9289 18.586 36.0093 18.7275 36.0621 18.8928C36.1148 19.0576 36.1406 19.242 36.1406 19.4424C36.1399 19.5701 36.1182 19.6679 36.0767 19.7373C36.0351 19.8068 35.979 19.8544 35.9096 19.8821C35.8417 19.9086 35.7652 19.9212 35.6833 19.9198H33.9313C33.9326 20.111 33.9577 20.2743 34.0086 20.4085C34.06 20.544 34.13 20.6518 34.219 20.7352C34.3088 20.8178 34.4124 20.878 34.5286 20.9162C34.6453 20.9539 34.7693 20.9724 34.9014 20.9719C34.9925 20.9719 35.0815 20.9633 35.1706 20.9473C35.2583 20.9322 35.3408 20.9117 35.4194 20.8866C35.4972 20.8602 35.564 20.8304 35.6219 20.8006C35.6457 20.7853 35.6676 20.7801 35.6872 20.7867C35.7052 20.792 35.7222 20.8066 35.7381 20.8304L35.866 21.0883C35.8813 21.1153 35.8859 21.1399 35.8806 21.1603C35.8741 21.1822 35.8569 21.198 35.8297 21.2105C35.7316 21.2688 35.6279 21.3144 35.5191 21.3481C35.4115 21.3805 35.3013 21.4043 35.1896 21.4174C35.0776 21.4307 34.968 21.4368 34.8591 21.4368C34.555 21.4381 34.2929 21.3798 34.0739 21.2621C33.8567 21.1451 33.6885 20.9646 33.5724 20.72C33.4549 20.4752 33.3949 20.1605 33.3935 19.7783C33.3949 19.5099 33.4304 19.2698 33.5004 19.0608C33.5711 18.852 33.6693 18.6747 33.7967 18.5312C33.924 18.3871 34.0718 18.2773 34.2435 18.2025C34.4143 18.1285 34.6012 18.0908 34.8038 18.0908ZM41.4884 18.0908C41.7199 18.0915 41.9193 18.1245 42.0882 18.1899C42.2571 18.2542 42.3958 18.3466 42.5046 18.4657C42.6135 18.586 42.6934 18.7275 42.7469 18.8928C42.7996 19.0576 42.8247 19.242 42.8247 19.4424C42.8239 19.5701 42.8022 19.6679 42.7607 19.7373C42.719 19.8068 42.6631 19.8544 42.5944 19.8821C42.5258 19.9086 42.4498 19.9212 42.3673 19.9198H40.6154C40.6159 20.111 40.6418 20.2743 40.6926 20.4085C40.7446 20.544 40.8146 20.6518 40.9031 20.7352C40.9929 20.8178 41.0965 20.878 41.2124 20.9162C41.3299 20.9539 41.4534 20.9724 41.5854 20.9719C41.6765 20.9719 41.7661 20.9633 41.8539 20.9473C41.9431 20.9322 42.0248 20.9117 42.1034 20.8866C42.1812 20.8602 42.248 20.8304 42.306 20.8006C42.3305 20.7853 42.3514 20.7801 42.3713 20.7867C42.3892 20.792 42.4062 20.8066 42.4221 20.8304L42.5501 21.0883C42.5661 21.1153 42.5699 21.1399 42.5647 21.1603C42.5587 21.1822 42.5409 21.198 42.5132 21.2105C42.4156 21.2688 42.312 21.3144 42.2036 21.3481C42.0955 21.3805 41.9859 21.4043 41.8737 21.4174C41.7616 21.4307 41.652 21.4368 41.5432 21.4368C41.239 21.4381 40.977 21.3798 40.7585 21.2621C40.5407 21.1451 40.3726 20.9646 40.2564 20.72C40.1389 20.4752 40.0789 20.1605 40.0782 19.7783C40.0789 19.5099 40.1144 19.2698 40.1844 19.0608C40.2551 18.852 40.3541 18.6747 40.4807 18.5312C40.6081 18.3871 40.7566 18.2773 40.9274 18.2025C41.0984 18.1285 41.2858 18.0908 41.4884 18.0908ZM55.7717 18.1582C55.7929 18.1569 55.8127 18.1609 55.8297 18.1688C55.8476 18.1781 55.8602 18.1986 55.8699 18.231L56.1075 18.9961C56.1479 19.1191 56.1959 19.2117 56.2554 19.2763C56.3155 19.3393 56.382 19.3822 56.4567 19.4047C56.5311 19.4272 56.6105 19.4371 56.6935 19.4364H57.1026V18.2495C57.1026 18.2111 57.1099 18.1854 57.1237 18.1742C57.1396 18.1622 57.1655 18.1569 57.2002 18.1582H57.5362C57.5699 18.1569 57.5944 18.1622 57.6101 18.1742C57.6252 18.1854 57.6338 18.2111 57.6338 18.2495V19.4364H58.0429C58.1254 19.4371 58.2034 19.4272 58.2786 19.4047C58.3538 19.3822 58.423 19.3393 58.4846 19.2763C58.5452 19.2117 58.5953 19.1191 58.635 18.9961L58.8665 18.231C58.8759 18.1986 58.889 18.1781 58.9062 18.1688C58.924 18.1609 58.943 18.1569 58.9642 18.1582H59.2941C59.3299 18.159 59.3502 18.1703 59.3576 18.1907C59.3641 18.2111 59.3654 18.2336 59.3615 18.2561L59.1357 19.0576C59.1028 19.1897 59.0553 19.3048 58.9919 19.4034C58.9286 19.5013 58.8448 19.5766 58.7386 19.6263C58.8375 19.6713 58.9206 19.7148 58.9827 19.7697C59.0448 19.8238 59.0942 19.8881 59.1312 19.9609C59.1681 20.0349 59.1999 20.1175 59.2276 20.2075L59.5324 21.2654C59.5351 21.2801 59.5369 21.2952 59.5382 21.3117C59.539 21.3277 59.5337 21.3402 59.5244 21.352C59.5145 21.3633 59.4948 21.3685 59.4651 21.3698H59.1048C59.0889 21.3706 59.0712 21.3685 59.0519 21.3614C59.0328 21.3541 59.0169 21.3348 59.0072 21.3018L58.7075 20.2934C58.6772 20.189 58.6297 20.1063 58.5676 20.0435C58.5055 19.98 58.435 19.935 58.3559 19.9065C58.2766 19.8782 58.1941 19.8644 58.1097 19.8649H57.6338V21.278C57.6338 21.3164 57.6252 21.3421 57.6101 21.3533C57.5944 21.3653 57.5699 21.3705 57.5362 21.3698H57.2002C57.1655 21.3706 57.1396 21.3653 57.1237 21.3533C57.1099 21.3421 57.1026 21.3164 57.1026 21.278V19.8649H56.6262C56.5418 19.8643 56.4593 19.8782 56.38 19.9065C56.3009 19.935 56.2309 19.98 56.169 20.0435C56.1062 20.1063 56.0599 20.189 56.0283 20.2934L55.7294 21.3018C55.7189 21.3348 55.7051 21.3541 55.6853 21.3614C55.666 21.3685 55.6477 21.3705 55.631 21.3698H55.2775C55.2478 21.3685 55.2266 21.3633 55.2154 21.352C55.2034 21.3402 55.197 21.3277 55.1956 21.3117C55.195 21.2952 55.1956 21.2801 55.1982 21.2654L55.5096 20.2075C55.5347 20.1194 55.5658 20.0381 55.6015 19.9648C55.6396 19.8913 55.6892 19.8267 55.7526 19.771C55.8159 19.7161 55.8991 19.6713 56.004 19.6381C55.8892 19.5766 55.8046 19.5013 55.742 19.4034C55.6806 19.3048 55.6331 19.1897 55.6007 19.0576L55.3692 18.2561C55.3652 18.2336 55.3671 18.2111 55.3764 18.1907C55.3843 18.1703 55.4068 18.1589 55.4423 18.1582H55.7717ZM52.3594 18.1457C52.395 18.1449 52.4208 18.1509 52.4359 18.1648C52.4498 18.1794 52.4576 18.2079 52.4576 18.2495V20.6115H52.4822C52.5461 20.5084 52.6069 20.4111 52.6623 20.3206C52.7197 20.2293 52.7764 20.14 52.8338 20.0514C52.8907 19.9627 52.9526 19.8696 53.0186 19.7731L53.9412 18.3474C53.9663 18.3003 53.9913 18.264 54.0151 18.2349C54.0388 18.2079 54.0686 18.1873 54.1022 18.1761C54.1357 18.1643 54.1793 18.1582 54.2335 18.1582H54.3925C54.4638 18.1582 54.5225 18.1781 54.5674 18.2179C54.6116 18.2587 54.6362 18.3202 54.6367 18.4023V21.284C54.6379 21.3191 54.6307 21.3434 54.6149 21.3541C54.6011 21.3653 54.5753 21.3705 54.539 21.3698H54.2031C54.1701 21.3706 54.1451 21.3653 54.1286 21.3541C54.114 21.3434 54.1054 21.3191 54.1054 21.284V18.9472H54.0686C54.0065 19.0417 53.9498 19.1316 53.8982 19.2162C53.8467 19.2996 53.7953 19.3843 53.7431 19.4688C53.6903 19.5549 53.6323 19.6447 53.5684 19.7427L52.6161 21.1861C52.5863 21.233 52.5568 21.2694 52.5283 21.2958C52.5012 21.323 52.4696 21.3421 52.4373 21.3533C52.4036 21.364 52.3626 21.3698 52.3172 21.3698H52.1767C52.1026 21.3698 52.0433 21.3507 51.9992 21.3125C51.9556 21.2741 51.9331 21.2132 51.9324 21.1312V18.2435C51.9324 18.2046 51.9404 18.1781 51.9556 18.1648C51.9721 18.1509 51.9964 18.145 52.03 18.1457H52.3594ZM32.9482 17.0878C32.9837 17.0878 33.0069 17.0957 33.0187 17.1109C33.0294 17.1273 33.0347 17.1519 33.0333 17.1849V17.4852C33.0346 17.5208 33.0294 17.5459 33.0187 17.5611C33.0069 17.5757 32.9837 17.583 32.9482 17.583H31.7213V21.2654C31.7213 21.3104 31.7129 21.3389 31.6957 21.352C31.6784 21.3653 31.6515 21.3705 31.6111 21.3698H31.2634C31.2239 21.3706 31.1942 21.3653 31.1756 21.352C31.1571 21.3389 31.1472 21.3104 31.1472 21.2654V17.583H29.9568C29.9212 17.583 29.8981 17.5757 29.8868 17.5611C29.8756 17.5459 29.8703 17.5208 29.8717 17.4852V17.1849C29.8704 17.1519 29.8756 17.1273 29.8868 17.1109C29.8981 17.0957 29.9212 17.0878 29.9568 17.0878H32.9482ZM15.6418 5.82681L15.3766 8.36061L13.5842 10.1567C13.4787 10.2624 13.3059 10.2624 13.201 10.1567L9.55375 6.50328L11.1619 8.52668V10.9938C11.1619 11.1439 11.0397 11.2661 10.8906 11.2661H5.73372L8.20752 11.5015L10.0328 13.3313C10.1383 13.4365 10.1383 13.6102 10.0328 13.7154L6.38615 17.3695L8.30778 15.7984H10.9125C11.0609 15.7984 11.1835 15.9206 11.1835 16.0702V21.2371L11.507 18.6477L13.2471 16.9052C13.3521 16.7988 13.5249 16.7988 13.6304 16.9052L17.2763 20.558L15.6517 18.4883V16.0616C15.6517 15.9122 15.7745 15.7898 15.9235 15.7898H21.0801L18.5724 15.5246L16.7842 13.7326C16.6785 13.6275 16.6785 13.4535 16.7842 13.3484L20.4306 9.69444L18.48 11.2655H15.9123C15.7632 11.2655 15.6418 11.1431 15.6418 10.9938V5.82681ZM46.5241 18.8062C46.4231 18.8062 46.3161 18.8195 46.2046 18.846C46.0923 18.8732 45.9803 18.9114 45.8686 18.9616C45.7572 19.0132 45.6522 19.0754 45.554 19.1489C45.5433 19.2724 45.5368 19.3783 45.5302 19.4683C45.525 19.5594 45.5216 19.6388 45.5196 19.7121L45.5164 19.9258C45.5157 20.0812 45.5302 20.224 45.5598 20.3543C45.5895 20.4838 45.6371 20.5963 45.7038 20.6928C45.7704 20.7888 45.8608 20.8628 45.973 20.9162C46.0858 20.9693 46.2244 20.995 46.3894 20.9957C46.5338 20.9949 46.6593 20.9725 46.7656 20.9301C46.8711 20.8872 46.9595 20.8283 47.0308 20.7537C47.1021 20.6808 47.1582 20.5955 47.2005 20.5016C47.242 20.4079 47.2723 20.3099 47.2914 20.2088C47.3093 20.1063 47.3184 20.0059 47.3178 19.908C47.3185 19.767 47.306 19.6315 47.2822 19.5005C47.2577 19.3702 47.2156 19.252 47.1569 19.1481C47.0981 19.0437 47.017 18.9611 46.9133 18.9001C46.8097 18.8386 46.6804 18.8076 46.5241 18.8062ZM38.1923 18.8062C38.0907 18.8062 37.9844 18.8195 37.8722 18.846C37.76 18.8732 37.6485 18.9114 37.5363 18.9616C37.4248 19.0132 37.3198 19.0754 37.2214 19.1489C37.211 19.2724 37.2044 19.3783 37.1977 19.4683C37.1925 19.5594 37.1898 19.6388 37.188 19.7121C37.1851 19.7843 37.1846 19.8557 37.1846 19.9258C37.1833 20.0812 37.1977 20.224 37.2274 20.3543C37.2572 20.4838 37.3047 20.5963 37.3713 20.6928C37.4381 20.7888 37.5284 20.8628 37.6406 20.9162C37.7534 20.9693 37.892 20.995 38.0576 20.9957C38.2014 20.9949 38.3275 20.9725 38.433 20.9301C38.5387 20.8872 38.6272 20.8283 38.6984 20.7537C38.7697 20.6808 38.8258 20.5955 38.8687 20.5016C38.9102 20.4079 38.9405 20.3099 38.959 20.2088C38.9768 20.1063 38.9868 20.0059 38.9854 19.908C38.9867 19.767 38.9742 19.6315 38.9498 19.5005C38.9253 19.3702 38.8831 19.252 38.8251 19.1481C38.7656 19.0437 38.6846 18.9611 38.581 18.9001C38.4773 18.8386 38.3486 18.8076 38.1923 18.8062ZM61.388 18.5371C61.2533 18.5378 61.1346 18.565 61.0309 18.6158C60.9281 18.6668 60.8396 18.7369 60.7678 18.8255C60.6952 18.9153 60.6391 19.0165 60.5994 19.1303C60.5584 19.2447 60.5354 19.365 60.5268 19.4913H62.2182C62.2195 19.3618 62.2069 19.2394 62.1812 19.1256C62.1561 19.0113 62.1125 18.9095 62.0506 18.8214C61.9879 18.7329 61.9034 18.6642 61.7958 18.6139C61.6875 18.5637 61.5517 18.5378 61.388 18.5371ZM34.8103 18.5371C34.6756 18.5378 34.5569 18.565 34.4532 18.6158C34.3498 18.6668 34.2619 18.7369 34.1893 18.8255C34.1175 18.9153 34.0613 19.0165 34.0211 19.1303C33.9809 19.2447 33.9577 19.365 33.9491 19.4913H35.6397C35.641 19.3618 35.6292 19.2394 35.6034 19.1256C35.5784 19.0113 35.5342 18.9095 35.4729 18.8214C35.4102 18.7329 35.3256 18.6642 35.2181 18.6139C35.1105 18.5637 34.974 18.5378 34.8103 18.5371ZM41.4944 18.5371C41.3597 18.5378 41.2409 18.565 41.1373 18.6158C41.0344 18.6668 40.9453 18.7369 40.8733 18.8255C40.8015 18.9153 40.7454 19.0165 40.7057 19.1303C40.6648 19.2447 40.6418 19.365 40.6339 19.4913H42.3237C42.3251 19.3618 42.3133 19.2394 42.2882 19.1256C42.2624 19.0113 42.2182 18.9095 42.1561 18.8214C42.0948 18.7329 42.0104 18.6642 41.9021 18.6139C41.7946 18.5637 41.6586 18.5378 41.4944 18.5371ZM53.2027 5.53234C53.2932 5.53234 53.4008 5.60302 53.4008 5.73065V8.77241H54.3398C54.4573 8.77449 54.5826 8.76454 54.7152 8.74467C54.8452 8.72275 54.9758 8.67721 55.1032 8.60784C55.2319 8.5383 55.3488 8.43129 55.4535 8.28582C55.5585 8.14301 55.6436 7.94844 55.7077 7.70384L56.2421 5.69899C56.262 5.62362 56.2956 5.57528 56.3432 5.55821C56.3912 5.53834 56.4361 5.53026 56.4804 5.53234H57.779C57.9348 5.53234 57.9982 5.67386 57.9776 5.76832L57.4313 7.89501C57.354 8.23279 57.2287 8.52649 57.0585 8.77449C56.8909 9.02246 56.6763 9.22547 56.421 9.3801V9.43969C56.6262 9.51111 56.7971 9.59228 56.9318 9.68356C57.0663 9.77692 57.1772 9.88205 57.2605 9.99978C57.3461 10.116 57.4148 10.2478 57.4702 10.3945C57.5244 10.5392 57.5759 10.7019 57.6213 10.8811L58.3577 13.6451C58.3776 13.7233 58.3254 13.8912 58.1512 13.8831H56.7721C56.6956 13.8831 56.6222 13.8455 56.582 13.7397L55.8495 11.155C55.7683 10.8832 55.6634 10.6742 55.5394 10.5293C55.412 10.3846 55.2538 10.2854 55.0637 10.2318C54.8737 10.1756 54.6393 10.1505 54.3635 10.1544H53.4008V13.6921C53.4008 13.8057 53.3011 13.8831 53.187 13.8831H51.8076C51.6982 13.8831 51.5938 13.8025 51.5938 13.6921V5.72278C51.5938 5.61764 51.6903 5.53234 51.8076 5.53234H53.2027ZM39.1642 5.51638L42.5164 5.53234C42.6571 5.53234 42.7427 5.61969 42.7427 5.73403V6.89127C42.7427 6.97657 42.6821 7.09277 42.5318 7.09277H39.312C39.0381 7.09277 38.7241 7.30046 38.7241 7.67947V8.57017H42.1363C42.2809 8.57017 42.3621 8.65471 42.3621 8.77186V9.88788C42.3621 9.96003 42.3007 10.083 42.1569 10.083H38.7241V11.6714C38.7241 12.1731 39.1148 12.3101 39.312 12.3101H42.5409C42.6808 12.3101 42.7422 12.4311 42.7422 12.5124V13.6809C42.7396 13.7939 42.659 13.8831 42.5376 13.8831H39.1167C37.9401 13.8831 36.9173 12.9032 36.9173 11.6912V7.73627C36.9173 6.56719 37.9046 5.5106 39.1642 5.51638ZM79.4781 5.53234C79.5917 5.53234 79.6682 5.63226 79.6682 5.74659V6.87797C79.6682 6.98782 79.5883 7.09277 79.4781 7.09277H77.2787V13.6921C77.2787 13.8057 77.179 13.8831 77.0649 13.8831H75.6858C75.5763 13.8831 75.472 13.8025 75.472 13.6921V7.09277H73.3083C73.198 7.09277 73.1183 6.98782 73.1183 6.87797V5.74659C73.1183 5.63226 73.1953 5.53234 73.3083 5.53234H79.4781ZM62.9137 5.53234C63.3334 5.53234 63.5068 5.82325 63.6237 6.18558L66.0891 13.6226C66.1241 13.7641 66.0317 13.8818 65.891 13.8832H64.3873C64.2975 13.8832 64.2223 13.8342 64.1819 13.6921L63.7187 12.1435H60.996L60.5328 13.6563C60.5242 13.6895 60.5104 13.7311 60.4965 13.7596C60.4357 13.8891 60.3368 13.8832 60.2913 13.8832H58.8448C58.7352 13.8832 58.5974 13.7787 58.6522 13.6134L61.1155 6.18558C61.1669 6.01313 61.2303 5.88079 61.3035 5.78426C61.4481 5.59309 61.6334 5.52109 61.8459 5.53497L62.9137 5.53234ZM70.2313 5.53234C70.5419 5.53497 70.8573 5.5614 71.1465 5.65007C71.8525 5.86561 72.451 6.35763 72.7784 7.09277C72.9175 7.40505 73.0126 7.76211 73.0126 8.14093C73.0345 9.72067 71.7543 10.8408 70.3882 10.8408H68.4125V13.6325C68.4125 13.6895 68.4086 13.7358 68.388 13.7754C68.3558 13.8395 68.2864 13.8831 68.2139 13.8831H66.8104C66.6916 13.8826 66.605 13.7965 66.605 13.6809V6.25905C66.6044 6.20486 66.6097 6.15257 66.6117 6.10423C66.6261 5.75389 66.8947 5.53234 67.2148 5.53234H70.2313ZM35.269 5.53227C35.4313 5.52897 35.4854 5.64875 35.4828 5.79419V6.85473C35.4854 6.9865 35.4042 7.08358 35.269 7.08097H31.6784V8.57017H33.7823C35.0987 8.57017 36.1333 9.47062 36.4059 10.7812C36.4435 10.9619 36.4362 11.1252 36.4336 11.262C36.3834 12.8642 35.1238 13.9367 33.5802 13.8831H30.4583C30.1257 13.8831 29.8711 13.6181 29.8711 13.2953V6.12014C29.8711 5.88998 30.0142 5.53227 30.5019 5.53227H35.269ZM49.875 5.53243C50.2431 5.53243 50.5045 5.80817 50.5031 6.121V13.6684C50.5031 13.7841 50.4313 13.8832 50.288 13.8832H48.9101C48.7921 13.8932 48.6964 13.792 48.6964 13.6815V7.10488H46.3782L46.3307 7.93878C46.291 8.52659 46.2515 9.0681 46.2119 9.56668C46.1696 10.0666 46.1182 10.5236 46.0555 10.9388C45.9915 11.3534 45.9044 11.7309 45.7934 12.0662C45.6846 12.4021 45.5321 12.6977 45.358 12.9616C44.803 13.8026 44.159 13.88 43.4246 13.8827L43.3374 13.8831C43.222 13.8831 43.1361 13.796 43.1361 13.6676V12.5051C43.1361 12.3842 43.2476 12.3094 43.3361 12.3101H43.3737C44.3482 12.3101 44.4242 10.5029 44.4902 9.74973C44.5317 9.29275 44.5714 8.75855 44.6064 8.14093L44.7132 6.33056C44.7186 6.24452 44.7364 6.16655 44.7396 6.09457C44.7555 5.83928 44.9627 5.53243 45.3138 5.53243H49.875ZM33.4139 10.0824H31.6784V12.2982H33.4022C34.058 12.2982 34.5754 11.8241 34.5555 11.1668C34.5351 10.5096 34.0264 10.0824 33.4139 10.0824ZM62.3989 7.45792H62.3284L61.8763 9.15724L61.4249 10.6663H63.2911L62.839 9.15724L62.3989 7.45792ZM69.9572 7.0928H68.4125V9.27834L70.0326 9.28018C70.6602 9.28018 71.1229 8.76904 71.1233 8.18648C71.1246 7.60339 70.6581 7.07106 69.9572 7.0928Z" fill="#767986"/>
</svg>
