<svg width="31" height="25" viewBox="0 0 31 25" fill="none" xmlns="http://www.w3.org/2000/svg">
<path d="M23.1682 22.0374L23.1733 22.0452C23.3479 22.0447 23.521 22.0784 23.6832 22.1445C23.8381 22.208 23.9794 22.3021 24.0989 22.4214C24.2169 22.5396 24.3105 22.6809 24.3743 22.8368C24.5075 23.1718 24.5075 23.5469 24.3743 23.8819C24.3106 24.0378 24.2169 24.1791 24.0989 24.2973C23.9794 24.4166 23.8381 24.5107 23.6832 24.5742C23.347 24.7081 22.974 24.7081 22.6378 24.5742C22.4836 24.5107 22.3432 24.4166 22.2247 24.2973C22.1078 24.1786 22.0151 24.0375 21.9518 23.8819C21.8189 23.5468 21.8189 23.1719 21.9518 22.8368C22.0151 22.6812 22.1078 22.54 22.2247 22.4214C22.3432 22.3021 22.4836 22.208 22.6378 22.1445C22.8059 22.0731 22.9862 22.0367 23.1682 22.0374ZM16.1992 22.04C16.5474 22.028 16.8917 22.1187 17.1911 22.3012L16.954 22.7402C16.7211 22.6028 16.4577 22.529 16.189 22.5259C15.8983 22.5259 15.7249 22.6357 15.7249 22.8185C15.7249 23.0014 15.9085 23.0328 16.138 23.0641L16.393 23.1007C16.9234 23.1791 17.2447 23.409 17.2447 23.8479C17.2447 24.2868 16.8367 24.663 16.1354 24.663C15.7596 24.6733 15.3905 24.5597 15.0823 24.3391L15.3373 23.9158C15.5713 24.0937 15.8569 24.1857 16.1482 24.1771C16.5103 24.1771 16.7041 24.0674 16.7041 23.874C16.7041 23.733 16.5664 23.6546 16.2757 23.6128L16.0207 23.5762C15.475 23.4978 15.1792 23.247 15.1792 22.8394C15.1792 22.343 15.577 22.04 16.1992 22.04ZM18.6395 21.345V22.1027H19.5039V22.5991H18.6395V23.7251C18.6395 23.9864 18.7262 24.1431 18.9914 24.1431C19.1569 24.1375 19.3183 24.089 19.4606 24.0021L19.6136 24.4671C19.4147 24.5942 19.1849 24.6612 18.9506 24.6604C18.3233 24.6604 18.104 24.3156 18.104 23.7356V22.5991H17.6093V22.1027H18.104V21.345H18.6395ZM13.5677 22.0452C14.2485 22.0452 14.7228 22.5677 14.7228 23.3515C14.7228 23.4247 14.7228 23.49 14.7151 23.5553H12.9072C12.9487 23.9278 13.272 24.1988 13.6365 24.1666C13.8946 24.1628 14.144 24.0708 14.3454 23.9054L14.6004 24.3077C14.3213 24.5459 13.9664 24.6705 13.6034 24.6578C12.8992 24.6679 12.3204 24.0913 12.3105 23.3698C12.3007 22.6483 12.8635 22.0553 13.5677 22.0452ZM10.5409 22.0426C10.8385 22.0309 11.1234 22.1671 11.3059 22.4084V22.1053H11.8413V23.3515L11.8362 24.5925H11.3059V24.2894C11.1234 24.5307 10.8385 24.6669 10.5409 24.6552C9.83674 24.6552 9.26591 24.0704 9.26591 23.3489C9.26591 22.6274 9.83674 22.0426 10.5409 22.0426ZM21.3373 22.04C21.466 22.0405 21.5936 22.0635 21.7147 22.1079L21.5515 22.6304C21.4461 22.5874 21.3335 22.5661 21.22 22.5677C20.8732 22.5677 20.71 22.7976 20.71 23.2104V24.6082H20.1796V22.1131H20.7049V22.4162C20.8375 22.1828 21.0841 22.0425 21.3475 22.0504L21.3373 22.04ZM7.9017 22.04C8.1615 22.0243 8.41531 22.124 8.59835 22.3135C8.7814 22.5031 8.87597 22.7642 8.85793 23.0302V24.5977H8.32499V23.2104C8.32499 22.7872 8.15159 22.552 7.7895 22.552C7.61967 22.5436 7.45492 22.6128 7.33971 22.7409C7.22451 22.869 7.1707 23.0429 7.19282 23.2157V24.5977H6.65733V23.2104C6.65733 22.7872 6.47884 22.552 6.12695 22.552C5.95657 22.5417 5.79066 22.6103 5.67502 22.7389C5.55938 22.8675 5.50623 23.0425 5.53026 23.2157V24.5977H4.99477V22.1027H5.52516V22.411C5.68212 22.1664 5.95378 22.0252 6.23914 22.04C6.56688 22.0255 6.87606 22.196 7.04492 22.4841C7.23013 22.1871 7.55844 22.0169 7.9017 22.04ZM23.1682 22.552L23.1733 22.5677C23.0694 22.5663 22.9663 22.5858 22.8698 22.6252C22.7789 22.6625 22.6965 22.7186 22.6276 22.7898C22.5573 22.8648 22.5026 22.9537 22.4669 23.0511C22.389 23.2597 22.389 23.4904 22.4669 23.699C22.5025 23.7964 22.5572 23.8853 22.6276 23.9602C22.6965 24.0316 22.7789 24.0876 22.8698 24.1248C23.0641 24.2028 23.2799 24.2028 23.4741 24.1248C23.5694 24.0888 23.6563 24.0327 23.7291 23.9602C23.7996 23.8854 23.8543 23.7964 23.8898 23.699C23.9677 23.4904 23.9677 23.2597 23.8898 23.0511C23.8543 22.9536 23.7996 22.8647 23.7291 22.7898C23.6563 22.7173 23.5694 22.6613 23.4741 22.6252C23.378 22.5801 23.2739 22.5552 23.1682 22.552ZM10.6335 22.6414C10.233 22.626 9.89383 22.9415 9.87025 23.3515C9.85074 23.5613 9.9233 23.7676 10.065 23.9198C10.2067 24.072 10.4045 24.1559 10.6097 24.151C11.0106 24.1488 11.3363 23.8188 11.3427 23.4081C11.3492 22.9975 11.0341 22.6568 10.6335 22.6414ZM13.5498 22.5285C13.2129 22.5209 12.9302 22.7874 12.9098 23.1321L14.1669 23.1347C14.1635 22.9704 14.0966 22.8143 13.9809 22.7006C13.8652 22.5869 13.7101 22.525 13.5498 22.5285ZM9.62527 0.900024C11.5125 0.900024 13.2636 1.48392 14.7085 2.48127C12.6567 4.2883 11.3617 6.93762 11.3617 9.89002C11.3617 12.8424 12.6567 15.4917 14.7085 17.2988C13.2636 18.2961 11.5125 18.88 9.62527 18.88C4.6704 18.88 0.653687 14.8551 0.653687 9.89002C0.653687 4.92498 4.6704 0.900024 9.62527 0.900024ZM21.2015 0.900024C26.1564 0.900024 30.1731 4.92498 30.1731 9.89002C30.1731 14.8551 26.1564 18.88 21.2015 18.88C19.3143 18.88 17.5632 18.2961 16.1183 17.2988C18.1701 15.4917 19.4651 12.8424 19.4651 9.89002C19.4651 6.93762 18.1701 4.2883 16.1183 2.48127C17.5632 1.48392 19.3143 0.900024 21.2015 0.900024ZM15.4134 3.02099C17.3604 4.67008 18.5968 7.13536 18.5968 9.89002C18.5968 12.6447 17.3604 15.11 15.4134 16.7591C13.4663 15.11 12.2299 12.6447 12.2299 9.89002C12.2299 7.13536 13.4663 4.67008 15.4134 3.02099Z" fill="#8D909B"/>
</svg>
