<svg width="98" height="24" viewBox="0 0 98 24" fill="none" xmlns="http://www.w3.org/2000/svg">
<path d="M57.6615 9.20338C57.9882 9.20338 58.2765 9.41879 58.3703 9.73255L59.8691 14.7476L63.4053 9.52889C63.5432 9.32572 63.7725 9.20362 64.0176 9.20362H66.5812C66.9393 9.20362 67.15 9.60709 66.946 9.9019L58.4206 22.2313C58.2822 22.4314 58.055 22.5506 57.8123 22.5506H55.2513C54.8908 22.5506 54.6804 22.143 54.8889 21.8482L57.5439 18.0946L54.7211 9.79204C54.6232 9.50323 54.8372 9.20338 55.1415 9.20338H57.6615ZM46.7051 8.96326C47.9343 8.96326 49.1652 9.23169 49.7177 10.035L49.8961 10.2939L50.0081 9.57927C50.0423 9.3629 50.2283 9.20362 50.4469 9.20362H52.9971C53.27 9.20362 53.4782 9.44757 53.4356 9.71792L52.0567 18.4669C51.9998 18.8272 51.69 19.0925 51.3259 19.0925H49.029C48.7559 19.0925 48.5476 18.8481 48.5905 18.578L48.7044 17.8675C48.7044 17.8675 47.4445 19.3298 45.1735 19.3298C43.8502 19.3298 42.7394 18.9479 41.9612 18.0304C41.114 17.0318 40.7678 15.6009 41.0118 14.1038C41.4802 11.103 43.8875 8.96326 46.7051 8.96326ZM84.6945 8.96326C85.9238 8.96326 87.1547 9.23169 87.7072 10.035L87.8855 10.2939L87.9978 9.57927C88.0318 9.3629 88.2178 9.20362 88.4363 9.20362H90.9865C91.2594 9.20362 91.4679 9.44757 91.4253 9.71792L90.0464 18.4669C89.9895 18.8272 89.6797 19.0925 89.3156 19.0925H87.0187C86.7456 19.0925 86.5373 18.8481 86.5802 18.578L86.6941 17.8675C86.6941 17.8675 85.4342 19.3298 83.1632 19.3298C81.8398 19.3298 80.7291 18.9479 79.9509 18.0304C79.1037 17.0318 78.7575 15.6009 79.0015 14.1038C79.4697 11.103 81.8767 8.96326 84.6945 8.96326ZM75.0667 4.26648C76.8487 4.26648 78.1911 4.73808 78.9486 5.63018C79.6377 6.44144 79.8664 7.60028 79.6282 9.07505C79.0989 12.447 77.0742 14.1484 73.566 14.1484H71.8805C71.5161 14.1484 71.2061 14.414 71.1494 14.7745L70.5385 18.6543C70.499 18.9069 70.2816 19.0925 70.0269 19.0925H67.2938C67.021 19.0925 66.8129 18.8483 66.8553 18.5782L69.0093 4.89256C69.066 4.53202 69.376 4.26648 69.7401 4.26648H75.0667ZM37.0772 4.26648C38.859 4.26648 40.2017 4.73808 40.9596 5.63018C41.6485 6.44144 41.8771 7.60028 41.639 9.07505C41.1097 12.447 39.085 14.1484 35.5765 14.1484H33.891C33.5269 14.1484 33.2169 14.414 33.1602 14.7745L32.5789 18.4667C32.522 18.8272 32.212 19.0925 31.8479 19.0925H29.3046C29.0317 19.0925 28.8235 18.8483 28.8658 18.5782L31.0198 4.89256C31.0768 4.53202 31.3868 4.26648 31.7509 4.26648H37.0772ZM96.8919 4.26672C97.1648 4.26672 97.3731 4.51091 97.3305 4.78101L95.175 18.4667C95.1181 18.8272 94.8081 19.0925 94.444 19.0925H92.2452C91.9725 19.0925 91.7643 18.8483 91.8066 18.5785L93.993 4.64237C94.0269 4.426 94.2129 4.26648 94.4317 4.26672H96.8919ZM47.31 11.6746C45.8569 11.6746 44.6813 12.6866 44.4517 14.1338C44.332 14.8438 44.474 15.4814 44.8513 15.9288C45.2319 16.3802 45.8241 16.6187 46.5638 16.6187C48.0394 16.6187 49.1963 15.6383 49.4427 14.1782C49.5545 13.4715 49.401 12.8298 49.0103 12.371C48.6223 11.9152 48.0341 11.6746 47.31 11.6746ZM85.2994 11.6746C83.8464 11.6746 82.6712 12.6866 82.4414 14.1338C82.3217 14.8438 82.4639 15.4814 82.841 15.9288C83.2218 16.3802 83.8138 16.6187 84.5538 16.6187C86.0293 16.6187 87.186 15.6383 87.4324 14.1782C87.5439 13.4715 87.3905 12.8298 87 12.371C86.6118 11.9152 86.0236 11.6746 85.2994 11.6746ZM73.3238 7.22831L72.7164 7.228C72.4981 7.228 72.3121 7.38727 72.2779 7.60364L71.7143 11.1807L72.7021 11.1805C74.0551 11.1771 75.403 11.0974 75.6814 9.26479C75.7872 8.59217 75.7027 8.10546 75.4224 7.77683C74.9544 7.228 74.0462 7.228 73.0848 7.228L73.3238 7.22831ZM35.3344 7.22831L34.7269 7.228C34.5084 7.228 34.3226 7.38727 34.2884 7.60364L33.7249 11.1807L34.7129 11.1805C36.0654 11.1771 37.4135 11.0974 37.692 9.26479C37.7978 8.59217 37.713 8.10546 37.433 7.77683C36.965 7.228 36.0567 7.228 35.0954 7.228L35.3344 7.22831Z" fill="#767986"/>
<path opacity="0.8" d="M17.4261 2.22552C16.3374 0.982477 14.3706 0.449951 11.8542 0.449951H4.54962C4.03542 0.449951 3.59735 0.824878 3.51739 1.33414L0.475527 20.6615C0.415681 21.0429 0.709885 21.3876 1.09482 21.3876H5.60435L5.29315 23.3654C5.24072 23.699 5.49782 24.0006 5.83488 24.0006H9.63607C10.0859 24.0006 10.4689 23.6726 10.539 23.2272L10.5764 23.0334L11.2924 18.4834L11.3386 18.232C11.4087 17.7868 11.7917 17.4584 12.2415 17.4584H12.8101C16.4925 17.4584 19.3759 15.9594 20.2183 11.6239C20.5705 9.81233 20.3883 8.30015 19.4573 7.23702C19.176 6.91606 18.8256 6.65028 18.4169 6.43343C18.7037 4.60125 18.415 3.35486 17.4261 2.22552Z" fill="#767986"/>
<path opacity="0.8" d="M17.4261 2.22552C16.3374 0.982477 14.3706 0.449951 11.8542 0.449951H4.54962C4.03542 0.449951 3.59735 0.824878 3.51739 1.33414L0.475527 20.6615C0.415681 21.0429 0.709885 21.3876 1.09482 21.3876H5.60435L6.73712 14.1896L6.70193 14.4153C6.78212 13.9063 7.21613 13.5311 7.73057 13.5311H9.87402C14.0834 13.5311 17.3795 11.8175 18.3423 6.86161C18.371 6.71529 18.3952 6.57304 18.4169 6.43343C18.7037 4.60125 18.415 3.35486 17.4261 2.22552Z" fill="#767986"/>
<path d="M7.95416 6.45766C8.00227 6.15158 8.19857 5.90067 8.46261 5.77401C8.58254 5.71644 8.71684 5.6843 8.85736 5.6843H14.5832C15.2616 5.6843 15.8941 5.72891 16.4722 5.82223C16.6374 5.84885 16.7982 5.87956 16.9546 5.91434C17.1106 5.94912 17.2624 5.98774 17.4091 6.03092C17.4826 6.05227 17.5547 6.07506 17.6258 6.09856C17.9097 6.19308 18.1742 6.30438 18.4174 6.43367C18.7042 4.60149 18.4155 3.3551 17.4266 2.22576C16.3374 0.982477 14.3706 0.449951 11.8542 0.449951H4.54962C4.03542 0.449951 3.59735 0.824878 3.51739 1.33414L0.475527 20.6615C0.415681 21.0429 0.709885 21.3876 1.09482 21.3876H5.60435L6.73712 14.1896L7.95416 6.45766Z" fill="#767986"/>
</svg>
