<svg width="57" height="27" viewBox="0 0 57 27" fill="none" xmlns="http://www.w3.org/2000/svg">
<path opacity="0.8" fill-rule="evenodd" clip-rule="evenodd" d="M53.3292 16.6646H54.1996V18.0318H54.6247L55.4745 16.6646H56.4409L55.3307 18.3681V18.3821L56.578 20.2399H55.5705L54.652 18.7887H54.1996V20.2399H53.3292V16.6646ZM51.7254 18.0106C51.7186 17.5339 51.4173 17.2535 51.0265 17.2535C50.5809 17.2535 50.2655 17.5551 50.1834 18.0106H51.7254ZM51.0471 16.5806C52.0477 16.5806 52.596 17.3306 52.596 18.2769C52.596 18.3893 52.5823 18.5083 52.5687 18.6207H50.1628C50.2176 19.2444 50.6838 19.567 51.2115 19.567C51.5678 19.567 51.9311 19.4056 52.2121 19.1742L52.5549 19.8125C52.1985 20.1347 51.6502 20.3241 51.1498 20.3241C49.9915 20.3241 49.2649 19.4686 49.2649 18.4524C49.2649 17.3519 49.9984 16.5806 51.0471 16.5806ZM45.2746 19.4899C45.7063 19.4268 46.0079 19.0552 46.0079 17.7864V16.6646H48.5576V20.2399H47.6872V17.3868H46.8373V17.7864C46.8373 19.3425 46.4331 20.2399 45.2746 20.2751V19.4899ZM43.9925 18.0106C43.9856 17.5339 43.684 17.2535 43.2932 17.2535C42.8478 17.2535 42.5325 17.5551 42.4503 18.0106H43.9925ZM43.3138 16.5806C44.3146 16.5806 44.8629 17.3306 44.8629 18.2769C44.8629 18.3893 44.8491 18.5083 44.8354 18.6207H42.4297C42.4844 19.2444 42.9506 19.567 43.4783 19.567C43.8348 19.567 44.1981 19.4056 44.479 19.1742L44.8216 19.8125C44.4652 20.1347 43.9171 20.3241 43.4165 20.3241C42.2582 20.3241 41.5318 19.4686 41.5318 18.4524C41.5318 17.3519 42.2651 16.5806 43.3138 16.5806ZM36.1501 16.6646H36.9796V19.4827H38.0693V16.6646H38.8987V19.4827H39.9884V16.6646H40.8179V20.2399H36.1501V16.6646ZM33.5328 19.567C34.1017 19.567 34.5746 19.1183 34.5746 18.4524C34.5746 17.7932 34.1017 17.3378 33.5328 17.3378C32.9639 17.3378 32.4979 17.7932 32.4979 18.4524C32.4979 19.1183 32.9639 19.567 33.5328 19.567ZM33.526 16.5806C34.5953 16.5806 35.4519 17.3587 35.4519 18.4524C35.4519 19.553 34.5953 20.3241 33.5328 20.3241C32.4704 20.3241 31.6137 19.553 31.6137 18.4524C31.6137 17.3587 32.4704 16.5806 33.526 16.5806ZM27.8428 15.2627H28.7271V17.2885H29.3575L30.5021 15.2627H31.4616L30.0841 17.6323V17.6463L31.5439 20.2399H30.5433L29.3575 18.0668H28.7271V20.2399H27.8428V15.2627Z" fill="#767986"/>
<path fill-rule="evenodd" clip-rule="evenodd" d="M11.5025 23.6152C5.2844 23.6152 0.243774 18.4588 0.243774 12.099C0.243774 5.73925 5.2844 0.583496 11.5025 0.583496C17.7204 0.583496 22.7613 5.73925 22.7613 12.099C22.7613 14.2601 22.1796 16.2823 21.1673 18.0101C21.1344 18.0665 21.051 18.0469 21.0421 17.9818C20.6559 15.1518 18.9655 13.5925 16.5051 13.1378C16.2917 13.0983 16.2519 12.9638 16.5343 12.9388C17.2848 12.8724 18.3542 12.8836 18.8981 12.984C18.9308 12.6937 18.9452 12.3981 18.9452 12.099C18.9452 7.89484 15.613 4.48662 11.5025 4.48662C7.39193 4.48662 4.05987 7.89484 4.05987 12.099C4.05987 16.3032 7.39193 19.7115 11.5025 19.7115C11.6197 19.7115 11.7362 19.713 11.852 19.7074C11.7279 18.9681 11.6896 18.2166 11.7122 17.6489C11.7305 17.1844 11.8226 17.1207 12.0274 17.4821C13.0574 19.2975 14.5353 20.9512 17.4084 21.5987C19.7574 22.128 22.1127 22.7543 24.6593 26.0429C24.8857 26.3352 24.5402 26.6274 24.2806 26.392C21.6894 24.0439 19.3481 23.287 17.1904 23.287C14.7886 23.287 13.1521 23.6152 11.5025 23.6152ZM17.2175 18.7732C16.9913 18.7732 16.8025 18.8538 16.6864 19.0004C16.3892 19.3755 16.5228 20.0355 16.9782 20.4426C17.177 20.6201 17.4634 20.7263 17.7444 20.7263C18.0307 20.7263 18.2693 20.6164 18.4167 20.4175C18.6817 20.0541 18.5294 19.5393 18.0285 19.1061C17.7806 18.8915 17.4927 18.7732 17.2175 18.7732ZM19.714 16.8888C19.4983 16.8053 19.327 16.8719 19.2454 17.0247C19.1216 17.2559 19.213 17.713 19.4626 18.1113C19.7155 18.5149 19.93 18.7197 20.1007 18.7197C20.2573 18.7197 20.4132 18.5107 20.3396 18.0059C20.2957 17.7044 20.1318 17.0504 19.714 16.8888ZM32.8385 10.9062L31.9324 9.79144C31.8374 9.67466 31.9187 9.49732 32.0674 9.49732H33.9632C34.0535 9.22243 34.1046 8.9288 34.1046 8.6238C34.1046 7.22728 33.0883 6.02317 31.6933 6.02317C30.2985 6.02317 29.2823 7.22728 29.2823 8.6238C29.2823 10.0203 30.2985 11.2074 31.6933 11.2074C32.116 11.2074 32.5032 11.0969 32.8385 10.9062ZM36.939 12.7903C37.0374 12.9017 36.9567 13.081 36.8083 13.081H34.7393C34.6552 13.081 34.5754 13.0427 34.5214 12.9765L34.1708 12.5452C33.4566 13.0188 32.6062 13.2952 31.6933 13.2952C29.175 13.2952 27.126 11.1997 27.126 8.6238C27.126 6.04793 29.175 3.95224 31.6933 3.95224C34.2119 3.95224 36.2607 6.04793 36.2607 8.6238C36.2607 9.55236 35.9932 10.4177 35.5349 11.1458L36.939 12.7903ZM56.0511 4.16723H54.3625C54.2386 4.16723 54.1379 4.27012 54.1379 4.39711V12.8505C54.1379 12.9773 54.2386 13.0802 54.3625 13.0802H56.0511C56.1749 13.0802 56.2757 12.9773 56.2757 12.8505V4.39711C56.2757 4.27012 56.1749 4.16723 56.0511 4.16723ZM53.2097 4.16723H51.3208C51.2218 4.16723 51.1348 4.23281 51.1058 4.32868L49.611 9.32432L47.9681 4.32316C47.9375 4.23013 47.8518 4.16723 47.7549 4.16723H46.4367C46.34 4.16723 46.2541 4.23013 46.2237 4.32316L44.5807 9.32432L43.0858 4.32868C43.057 4.23281 42.9698 4.16723 42.8708 4.16723H40.9818C40.9095 4.16723 40.8418 4.20253 40.7996 4.26192C40.7574 4.32132 40.746 4.39778 40.7689 4.46738L43.5435 12.9253C43.5741 13.0183 43.6599 13.081 43.7564 13.081H45.2558C45.3525 13.081 45.4384 13.0183 45.4689 12.9255L47.0959 7.98402L48.7227 12.9255C48.7532 13.0183 48.8391 13.081 48.9358 13.081H50.4351C50.5317 13.081 50.6177 13.0183 50.6481 12.9253L53.4229 4.46738C53.4458 4.39778 53.4343 4.32132 53.3921 4.26192C53.3498 4.20253 53.282 4.16723 53.2097 4.16723ZM40.0537 4.39711V12.8505C40.0537 12.9773 39.9531 13.0802 39.8291 13.0802H38.1405C38.0167 13.0802 37.9159 12.9773 37.9159 12.8505V4.39711C37.9159 4.27012 38.0167 4.16723 38.1405 4.16723H39.8291C39.9531 4.16723 40.0537 4.27012 40.0537 4.39711Z" fill="#767986"/>
</svg>
