<svg width="50" height="17" viewBox="0 0 50 17" fill="none" xmlns="http://www.w3.org/2000/svg">
<path d="M18.8867 1.07426L12.4407 16.4987H8.24967L5.08363 4.20485C4.90141 3.45077 4.71919 3.17655 4.14976 2.85664C3.17034 2.33107 1.5987 1.82834 0.20929 1.53128L0.300399 1.07426H7.06525C7.93079 1.07426 8.70522 1.64554 8.88744 2.65098L10.5502 11.5629L14.7184 1.07426H18.8867ZM35.3547 11.4715C35.3774 7.40399 29.7514 7.17548 29.7742 5.37025C29.797 4.82183 30.3209 4.2277 31.4597 4.06774C32.0292 3.99919 33.6008 3.93064 35.3774 4.75327L36.0835 1.48558C35.1269 1.14281 33.8969 0.800049 32.3708 0.800049C28.4531 0.800049 25.6743 2.90234 25.6515 5.89582C25.6287 8.11237 27.6332 9.34632 29.1364 10.1004C30.6853 10.8545 31.2092 11.3344 31.2092 12.0199C31.1864 13.0482 29.9792 13.5052 28.8403 13.5281C26.8359 13.5509 25.6743 12.9796 24.7632 12.5455L24.0343 15.9274C24.9682 16.3616 26.6765 16.7272 28.4531 16.75C32.6214 16.75 35.3319 14.6706 35.3547 11.4715ZM45.7411 16.4987H49.4082L46.1966 1.07426H42.8028C42.0512 1.07426 41.3906 1.50843 41.1173 2.19396L35.1497 16.4758H39.3179L40.1379 14.1679H45.24L45.7411 16.4987ZM41.2995 11.0373L43.395 5.25599L44.6022 11.0373H41.2995ZM24.5582 1.07426L21.2783 16.4987H17.315L20.595 1.07426H24.5582Z" fill="#767986"/>
</svg>
