<svg width="122" height="25" viewBox="0 0 122 25" fill="none" xmlns="http://www.w3.org/2000/svg">
<path fill-rule="evenodd" clip-rule="evenodd" d="M51.6221 13.7797C51.6221 9.3842 53.316 6.57491 56.5918 6.57491C57.8407 6.57491 58.5626 6.90876 59.1733 7.29805L58.8679 9.35705C58.285 8.8557 57.4522 8.38312 56.5638 8.38312C55.0091 8.38312 53.899 10.1354 53.899 13.6685C53.899 17.1731 54.7315 19.1767 56.4804 19.1767C57.5353 19.1767 58.3405 18.7591 58.8402 18.3141L59.3398 19.9272C58.5903 20.5671 57.702 20.9844 56.4249 20.9844C53.4266 20.9844 51.6221 18.5644 51.6221 13.7797ZM45.2929 13.807V20.7898H43.1275V6.76932H45.2929V13.2512L48.6519 6.76932H50.8451L47.375 13.3623L51.3445 20.7898H48.9851L45.2929 13.807ZM35.1047 12.5H38.6859C38.6859 10.1076 38.2972 8.35504 37.0481 8.35504C35.7155 8.35504 35.2436 9.99621 35.1047 12.5ZM37.4922 20.9844C34.6051 20.9844 32.8286 18.6758 32.8286 14.3645C32.8286 9.85724 34.0779 6.57491 37.0481 6.57491C39.38 6.57491 40.9069 8.32744 40.9069 13.0837V14.2803H35.0769C35.0769 17.4518 35.9653 19.1208 37.6864 19.1208C38.908 19.1208 39.8797 18.5644 40.4349 18.1751L40.9347 19.8435C40.0464 20.5395 38.8802 20.9844 37.4922 20.9844ZM28.2757 8.52185H25.8604V8.77264C25.8604 11.7211 25.7217 16.0324 24.5557 19.0092H28.2757V8.52185ZM31.5235 23.5436H29.5805V20.7898H23.584V23.5436H21.6411V19.0092H22.5017C23.7783 16.0324 23.9172 11.6933 23.9172 7.96552V6.76932H30.4133V19.0092H31.5235V23.5436ZM15.0338 6.76932V12.722H18.2541V6.76932H20.3918V20.7898H18.2541V14.503H15.0338V20.7898H12.8684V6.76932H15.0338ZM10.0896 0.900024V20.7899H7.95193V13.1677H6.17521L2.7887 20.7899H0.317871L4.03801 12.639C2.28861 11.7488 1.12265 10.1355 1.12265 7.15915C1.12265 2.9864 3.75995 0.900024 6.89711 0.900024H10.0896ZM7.95193 2.70823H6.81376C5.0926 2.70823 3.42725 3.84875 3.42725 7.15915C3.42725 10.358 4.95369 11.3874 6.81376 11.3874H7.95193V2.70823Z" fill="#767986"/>
<path fill-rule="evenodd" clip-rule="evenodd" d="M73.9816 0.900024V19.6496H75.3425V24.1H74.2587L74.0647 20.7896H65.5703L65.3753 24.1H64.293V19.6496H64.8762C65.8477 18.8422 66.3193 16.6171 66.5971 13.7797C66.8747 10.8312 66.9578 6.43554 67.0416 0.900024H73.9816ZM80.8136 6.49125C83.2284 6.49125 84.7826 9.02306 84.3388 14.0025H78.0096C78.0651 17.8412 79.0642 19.9273 81.0907 19.9273C82.9503 19.9273 83.922 18.4256 83.922 18.4256L84.3388 19.4816C84.3388 19.4816 83.2839 21.0673 81.0634 21.0673C78.0934 21.0673 76.7325 18.3689 76.7325 13.7795C76.7325 9.18964 78.4534 6.49125 80.8136 6.49125ZM88.1161 6.76932V12.9723H92.8911V6.76932H94.1955V20.7898H92.8911V14.03H88.1161V20.7898H86.8117V6.76932H88.1161ZM98.5838 6.76944V11.9716H99.6118C102.277 11.9716 103.998 13.4181 103.998 16.3392C103.998 19.3153 102.165 20.7897 99.5282 20.7897H97.2801V6.76944H98.5838ZM112.161 6.76941V7.85471H107.525V20.7896H106.248V6.76941H112.161ZM115.523 6.76939V16.5055C115.523 17.2565 115.466 17.8685 115.411 18.4805H115.494C115.689 17.8411 115.966 17.2291 116.244 16.6171L120.797 6.76939H121.935V20.7896H120.686V11.0257C120.686 10.3023 120.74 9.69027 120.797 9.1061H120.713C120.519 9.71811 120.269 10.3023 119.964 10.9143L115.411 20.7896H114.301V6.76939H115.523ZM99.5555 13.0007H98.5838V19.7603H99.417C101.388 19.7603 102.72 18.787 102.72 16.3668C102.72 14.0025 101.555 13.0007 99.5555 13.0007ZM72.5936 2.04054H68.2909C68.2074 7.0754 68.0684 10.9143 67.8464 13.7797C67.5966 16.7558 67.1523 18.7308 66.4031 19.6496H72.5936V2.04054ZM80.8136 7.57654C79.3422 7.57654 78.1478 9.46781 78.0369 12.9724H83.1179C83.3395 9.24532 82.2293 7.57654 80.8136 7.57654Z" fill="#767986"/>
</svg>
